<?xml version="1.0" standalone="no"?>
<!DOCTYPE svg PUBLIC "-//W3C//DTD SVG 20010904//EN"
 "http://www.w3.org/TR/2001/REC-SVG-20010904/DTD/svg10.dtd">
<svg version="1.0" xmlns="http://www.w3.org/2000/svg"
 width="1181.000000pt" height="1181.000000pt" viewBox="0 0 1181.000000 1181.000000"
 preserveAspectRatio="xMidYMid meet">

<g transform="translate(0.000000,1181.000000) scale(0.100000,-0.100000)"
fill="#BD6C4C" stroke="none">
<path d="M6468 10539 c-30 -17 -22 -46 17 -59 59 -19 98 16 57 53 -21 19 -49
21 -74 6z"/>
<path d="M7165 10500 c-18 -20 -17 -20 22 -20 46 0 58 8 42 27 -16 19 -43 16
-64 -7z"/>
<path d="M6865 10490 c22 -5 44 -4 50 1 5 5 -11 9 -40 8 l-50 -1 40 -8z"/>
<path d="M7010 10490 c20 -13 63 -13 55 0 -3 6 -21 10 -38 10 -24 0 -28 -3
-17 -10z"/>
<path d="M7275 10480 c3 -5 8 -10 11 -10 2 0 4 5 4 10 0 6 -5 10 -11 10 -5 0
-7 -4 -4 -10z"/>
<path d="M6820 10252 c-34 -36 -68 -61 -90 -67 -53 -15 -33 -30 39 -30 47 0
66 -4 74 -16 16 -26 0 -62 -40 -89 -82 -55 -88 -76 -49 -169 24 -57 36 -99 61
-208 13 -57 12 -67 -6 -117 -18 -52 -19 -76 -13 -342 5 -298 2 -359 -21 -368
-8 -3 -44 15 -80 40 -37 24 -69 44 -71 44 -3 0 -17 8 -32 19 -15 10 -54 36
-87 57 -33 22 -68 47 -77 57 -10 9 -23 17 -29 17 -6 0 -29 16 -50 35 -22 19
-44 35 -50 35 -6 0 -34 17 -62 38 -28 20 -81 57 -117 82 -93 63 -193 137 -261
193 -32 26 -62 47 -67 47 -5 0 -27 16 -49 35 -23 19 -44 35 -47 35 -6 0 -61
43 -161 127 -43 36 -111 73 -133 73 -15 0 -48 -28 -132 -110 -31 -30 -82 -77
-114 -105 -32 -27 -72 -64 -89 -80 -18 -17 -64 -56 -104 -88 -39 -31 -75 -61
-78 -67 -4 -6 -30 -28 -59 -49 -29 -22 -70 -56 -92 -76 -21 -21 -53 -47 -70
-59 -42 -28 -330 -258 -374 -299 -45 -41 -144 -119 -226 -177 -35 -25 -82 -63
-105 -85 -23 -21 -81 -67 -128 -102 -47 -34 -113 -85 -146 -113 -90 -77 -371
-301 -419 -335 -24 -16 -59 -43 -78 -60 -19 -16 -76 -61 -127 -100 -50 -38
-117 -90 -149 -116 -31 -25 -84 -65 -117 -90 -33 -24 -65 -51 -72 -60 -7 -9
-35 -31 -63 -49 -27 -18 -50 -36 -50 -40 0 -4 -15 -17 -32 -29 -67 -43 -105
-70 -159 -117 -31 -27 -107 -85 -168 -129 -62 -44 -127 -93 -144 -108 -18 -15
-54 -41 -82 -58 -27 -16 -68 -43 -90 -60 -22 -16 -58 -42 -80 -57 -22 -15 -65
-46 -96 -69 -31 -24 -59 -43 -63 -43 -5 0 -30 -20 -57 -44 -28 -25 -78 -64
-111 -87 -34 -23 -71 -50 -81 -60 -11 -10 -45 -33 -75 -51 -30 -18 -84 -57
-121 -85 -36 -29 -70 -53 -75 -53 -4 0 -23 -12 -41 -27 -18 -16 -45 -36 -60
-46 -14 -11 -31 -30 -37 -43 -14 -30 8 -58 61 -75 20 -7 56 -28 81 -48 78 -64
144 -108 171 -114 31 -8 55 7 127 80 29 29 57 53 62 53 6 0 30 18 54 40 23 22
72 59 107 83 157 106 207 141 250 177 54 45 87 56 111 38 20 -16 25 -113 33
-748 16 -1235 26 -1818 35 -2025 5 -126 12 -287 15 -357 l5 -127 -48 -40 c-26
-23 -55 -41 -64 -41 -24 0 -56 -46 -64 -89 -8 -52 -35 -123 -54 -146 -37 -45
-71 -104 -94 -160 -27 -68 -61 -143 -75 -165 -16 -24 -91 -187 -91 -196 0 -5
-12 -31 -26 -59 -22 -40 -26 -58 -20 -88 6 -32 12 -38 44 -47 35 -9 42 -17 85
-102 67 -135 71 -146 52 -174 -9 -13 -33 -35 -55 -49 -45 -28 -45 -50 0 -60
16 -3 34 -13 41 -21 16 -20 218 -17 226 3 3 7 16 13 28 13 13 0 36 5 52 11 40
16 150 11 191 -8 30 -14 39 -15 66 -3 57 24 306 12 338 -17 16 -14 46 -17 201
-19 242 -3 368 -12 393 -29 28 -18 56 -77 43 -90 -5 -5 -72 -13 -147 -16 -75
-3 -146 -10 -157 -16 -19 -11 -18 -13 15 -26 19 -9 53 -18 75 -22 149 -24 259
-51 315 -78 71 -34 132 -43 380 -53 154 -6 234 2 410 42 137 31 181 34 285 17
47 -7 127 -8 239 -3 143 7 173 12 195 28 14 10 50 22 79 25 30 3 64 15 79 27
14 11 36 20 49 20 13 0 47 9 76 20 29 11 73 23 97 26 60 7 83 21 79 46 -5 33
-65 45 -208 41 -69 -1 -137 -6 -153 -9 -25 -6 -57 8 -57 26 0 12 101 40 140
39 19 -1 101 4 181 10 137 10 151 10 225 -10 43 -12 90 -23 104 -26 14 -3 47
-12 73 -20 48 -15 72 -15 232 3 28 3 61 7 73 10 13 3 21 1 18 -4 -3 -4 28 1
69 12 42 12 68 24 62 29 -15 9 9 26 38 28 61 2 114 12 144 26 31 15 32 17 15
30 -10 7 -34 13 -53 14 -139 4 -176 17 -166 57 10 39 32 83 58 116 22 27 28
29 88 27 35 -1 150 5 254 13 416 33 1112 43 1610 23 22 0 112 2 200 7 126 6
193 4 315 -9 224 -25 678 -26 775 -2 131 33 200 39 450 41 218 2 260 5 325 23
41 11 97 23 123 27 61 7 137 51 137 77 0 11 -7 34 -16 50 -14 28 -19 30 -51
24 -64 -12 -83 34 -38 95 34 47 33 85 -4 104 -36 19 -41 33 -41 106 0 59 -12
82 -33 61 -35 -35 -64 28 -77 168 -12 124 -12 499 0 811 8 232 12 426 26 1534
7 526 17 651 55 693 23 24 66 46 121 63 15 5 56 5 92 0 53 -6 78 -16 133 -53
108 -71 146 -88 179 -78 60 18 103 45 115 73 6 15 16 28 21 28 19 0 108 82
108 98 0 10 -6 24 -13 33 -12 16 -119 88 -148 100 -9 4 -57 36 -108 71 -108
74 -184 121 -227 141 -17 8 -35 20 -39 26 -3 6 -34 25 -68 42 -33 17 -72 39
-86 49 -69 47 -178 116 -195 123 -10 4 -35 20 -55 35 -20 16 -56 39 -81 51
-46 23 -95 54 -142 90 -14 12 -32 21 -40 21 -7 0 -45 22 -83 48 -39 26 -101
65 -139 86 -38 21 -88 53 -110 71 -23 18 -61 43 -86 55 -25 12 -58 28 -73 37
-77 41 -69 35 -184 138 -52 47 -68 99 -65 202 2 60 1 63 -28 78 -17 9 -35 27
-40 41 -12 30 -5 216 9 263 11 35 -2 115 -20 127 -5 3 -9 16 -9 29 0 23 -50
75 -72 75 -22 0 -71 -45 -84 -76 -12 -28 -20 -34 -44 -34 -19 0 -37 8 -48 22
-51 63 -77 72 -118 43 -19 -13 -21 -22 -18 -92 2 -43 9 -117 14 -165 6 -49 8
-99 5 -113 -3 -14 -7 -36 -10 -49 -3 -13 -12 -27 -21 -30 -27 -10 -91 15 -112
44 -12 15 -33 31 -48 34 -15 4 -41 18 -57 32 -16 13 -37 24 -47 24 -9 0 -23 7
-31 16 -7 8 -29 24 -48 35 -20 10 -67 39 -106 64 -38 24 -76 44 -84 45 -7 0
-29 14 -48 30 -18 17 -42 30 -52 30 -10 0 -38 15 -62 34 -24 18 -62 43 -84 55
-41 22 -84 51 -144 96 -19 14 -39 25 -46 25 -6 0 -42 20 -79 45 -38 25 -73 45
-77 45 -5 0 -23 13 -41 28 -18 16 -62 45 -98 65 -36 21 -85 52 -110 70 -25 18
-74 53 -110 79 -67 48 -104 83 -124 116 -6 11 -19 30 -29 44 -16 23 -16 27 -1
58 15 29 16 67 9 369 -10 408 -8 675 6 718 12 39 33 47 90 34 24 -5 80 -12
124 -16 66 -5 86 -3 115 12 28 14 35 24 35 48 0 30 0 30 -57 29 -36 -1 -67 -8
-84 -19 -33 -22 -67 -16 -156 24 -60 27 -68 33 -69 58 0 15 -6 54 -13 87 l-12
58 -18 -26 c-15 -23 -22 -26 -49 -21 -36 7 -69 39 -61 60 6 14 85 15 117 1 28
-13 21 29 -9 53 -44 35 -73 27 -134 -37z m-1300 -639 c32 -27 80 -64 107 -83
26 -19 61 -47 77 -61 16 -15 47 -37 68 -50 22 -13 69 -47 106 -74 75 -57 110
-81 156 -108 17 -11 42 -30 57 -43 14 -13 29 -24 35 -24 5 0 34 -18 64 -40 30
-22 75 -50 100 -64 25 -13 54 -34 65 -46 11 -12 52 -43 90 -67 39 -25 104 -71
145 -102 85 -64 88 -66 161 -105 30 -16 58 -35 62 -42 4 -7 39 -29 77 -49 39
-19 83 -43 98 -53 15 -11 54 -36 87 -58 33 -21 69 -46 80 -55 25 -21 80 -54
123 -74 17 -8 32 -19 32 -23 0 -5 21 -19 48 -32 26 -13 65 -36 86 -52 21 -15
45 -28 53 -28 8 0 40 -20 71 -44 32 -24 68 -49 82 -56 14 -7 57 -34 95 -59 96
-63 146 -93 236 -141 15 -8 39 -25 54 -38 14 -12 54 -37 88 -54 34 -18 75 -43
90 -55 16 -13 35 -23 43 -23 8 0 25 -10 38 -22 33 -33 110 -85 137 -93 32 -10
111 -64 127 -87 7 -10 19 -18 27 -18 23 0 57 -18 105 -55 25 -19 64 -43 88
-54 23 -11 42 -25 42 -31 0 -6 21 -20 48 -30 26 -11 59 -27 74 -35 14 -8 33
-15 41 -15 9 0 29 -11 45 -25 17 -14 37 -25 45 -25 29 0 306 -147 347 -184 14
-13 45 -34 70 -48 75 -41 94 -52 130 -79 19 -14 68 -45 108 -70 97 -58 129
-78 184 -114 74 -49 141 -88 178 -106 19 -9 44 -26 54 -38 11 -11 25 -21 31
-21 7 0 24 -9 39 -21 15 -11 57 -36 94 -54 37 -18 76 -42 88 -53 12 -11 39
-30 60 -41 59 -32 170 -103 205 -131 81 -65 111 -87 149 -110 44 -26 110 -107
110 -134 0 -12 -10 -16 -36 -16 -36 0 -41 3 -152 90 -62 49 -174 120 -189 120
-6 0 -18 9 -29 21 -10 12 -35 30 -54 40 -19 11 -64 37 -99 59 -34 22 -65 40
-68 40 -3 0 -42 24 -86 53 -107 69 -114 73 -169 102 -26 13 -49 29 -53 35 -4
6 -27 22 -53 35 -26 14 -80 46 -120 70 -41 25 -78 45 -82 45 -5 0 -13 6 -17
13 -4 8 -21 20 -38 29 -65 32 -151 81 -165 93 -8 7 -32 18 -52 24 -20 7 -38
16 -40 21 -3 10 -51 38 -167 96 -41 21 -86 48 -100 60 -14 12 -44 30 -66 42
-22 11 -65 34 -95 51 -30 17 -69 37 -86 45 -17 8 -36 22 -43 30 -8 9 -48 35
-90 58 -42 23 -98 57 -125 76 -28 19 -69 43 -92 54 -24 10 -46 23 -49 28 -3 5
-34 23 -69 39 -34 17 -80 45 -102 62 -21 17 -52 38 -69 46 -37 18 -116 66
-191 118 -59 41 -102 66 -143 85 -13 6 -39 24 -58 40 -19 17 -39 30 -45 30 -6
0 -43 21 -82 47 -39 27 -84 54 -99 60 -16 7 -42 24 -59 38 -16 14 -36 25 -44
25 -8 0 -17 7 -20 15 -3 8 -20 19 -38 25 -18 6 -44 22 -56 35 -13 14 -31 25
-41 25 -10 0 -30 11 -46 24 -15 13 -41 31 -58 40 -43 23 -64 37 -112 68 -23
15 -45 28 -51 28 -5 0 -17 9 -26 19 -9 10 -52 40 -94 65 -42 26 -104 64 -137
86 -33 22 -70 44 -82 49 -11 5 -24 15 -28 21 -3 6 -27 22 -53 35 -47 25 -83
49 -280 188 -57 39 -118 80 -135 91 -18 10 -57 37 -87 60 -30 22 -68 47 -83
55 -15 8 -45 29 -65 46 -20 18 -53 40 -72 50 -19 10 -61 40 -94 67 -32 27 -79
61 -105 75 -25 15 -50 33 -54 40 -4 7 -31 28 -60 47 -29 19 -90 67 -137 105
-48 40 -95 71 -107 71 -14 0 -29 -12 -43 -35 -12 -20 -52 -60 -89 -91 -36 -30
-111 -95 -166 -144 -96 -87 -131 -115 -260 -216 -33 -25 -82 -66 -110 -90
-140 -120 -303 -251 -399 -318 -23 -16 -61 -48 -86 -72 -24 -24 -49 -44 -55
-44 -7 0 -22 -12 -36 -26 -13 -14 -44 -40 -69 -57 -25 -17 -86 -65 -137 -107
-148 -121 -200 -162 -232 -183 -17 -10 -51 -38 -75 -63 -25 -24 -49 -44 -55
-44 -5 0 -41 -26 -79 -57 -39 -32 -125 -101 -192 -153 -67 -52 -134 -106 -149
-118 -14 -13 -46 -37 -72 -53 -25 -15 -57 -42 -72 -58 -14 -17 -41 -38 -59
-47 -18 -9 -49 -31 -69 -48 -74 -65 -286 -230 -399 -312 -36 -26 -86 -65 -111
-86 -26 -21 -50 -38 -54 -38 -9 0 -70 -44 -136 -97 -23 -18 -45 -33 -49 -33
-5 0 -35 -22 -68 -50 -33 -27 -65 -50 -71 -50 -7 0 -23 -11 -36 -24 -13 -13
-62 -50 -109 -81 -47 -31 -121 -83 -163 -116 -42 -32 -82 -59 -88 -59 -7 0
-20 -10 -31 -22 -10 -11 -49 -40 -85 -64 -36 -23 -71 -50 -78 -58 -8 -9 -19
-16 -25 -16 -6 0 -30 -15 -53 -33 -23 -17 -55 -41 -70 -52 -30 -21 -99 -55
-114 -55 -18 0 -8 57 14 79 48 47 90 81 99 81 5 0 40 26 77 58 38 31 105 84
150 116 44 32 81 62 81 66 0 4 16 15 35 24 19 9 37 21 40 26 4 6 30 26 58 45
29 20 91 64 138 98 48 34 105 76 129 92 23 17 61 46 84 66 22 20 59 46 81 58
22 12 63 40 92 64 28 23 75 58 104 77 29 19 63 45 76 57 13 13 37 30 52 38 32
16 126 89 210 163 30 26 80 67 112 92 32 25 90 71 131 103 173 137 336 265
374 292 94 68 193 146 199 156 4 6 33 27 64 46 31 20 76 54 101 75 59 51 189
154 248 196 26 19 61 46 77 60 17 15 48 41 70 58 22 18 60 50 85 73 25 22 48
41 52 41 3 0 26 19 50 41 23 23 55 49 69 58 36 22 85 62 149 121 30 27 58 50
63 50 7 0 50 33 202 156 17 13 49 39 72 56 83 65 169 139 214 183 26 25 67 60
91 78 78 56 191 151 233 194 56 59 87 58 165 -4z m1420 -358 c0 -45 -13 -67
-24 -39 -8 21 4 95 15 88 5 -3 9 -25 9 -49z m-1425 -85 c16 -6 32 -15 35 -20
3 -5 35 -13 70 -19 36 -6 92 -24 125 -40 33 -16 77 -36 98 -45 24 -10 37 -22
37 -34 0 -17 -10 -20 -75 -25 -115 -8 -123 -25 -25 -50 52 -14 55 -16 53 -45
-3 -30 -3 -30 65 -37 182 -19 363 -84 370 -133 2 -14 11 -22 24 -22 11 0 34
-15 52 -34 27 -28 142 -86 174 -86 16 0 76 -32 105 -57 16 -12 39 -23 52 -23
25 0 52 -25 36 -34 -5 -3 -31 -9 -58 -12 -70 -8 -93 -13 -93 -22 0 -10 118
-68 179 -89 73 -24 190 -83 214 -107 13 -13 45 -31 72 -41 28 -11 66 -28 85
-40 19 -12 56 -31 83 -43 26 -12 47 -26 47 -32 0 -13 48 -36 93 -44 23 -4 37
-12 37 -22 0 -8 10 -19 23 -25 12 -5 47 -24 79 -42 31 -18 79 -44 107 -60 28
-15 51 -31 51 -36 0 -5 21 -16 46 -25 25 -8 66 -33 92 -54 26 -22 65 -45 87
-51 22 -7 60 -23 85 -36 25 -12 63 -28 85 -35 22 -7 77 -33 123 -57 67 -37 82
-49 82 -68 0 -20 6 -25 44 -30 25 -4 59 -18 77 -31 18 -13 55 -31 83 -40 28
-9 60 -24 71 -34 11 -10 37 -23 58 -30 42 -13 58 -37 36 -51 -20 -12 -106 -11
-131 2 -30 16 -68 -3 -68 -35 0 -33 19 -39 133 -41 58 -1 102 -6 109 -13 16
-16 7 -23 -41 -29 -23 -3 -44 -10 -48 -15 -11 -18 21 -28 95 -28 39 0 72 -4
72 -8 0 -9 35 -21 145 -48 91 -22 240 -70 265 -86 21 -14 26 -33 10 -43 -15
-9 -158 -33 -245 -40 -125 -10 -268 -25 -272 -29 -2 -2 11 -6 29 -9 31 -6 83
-9 347 -23 130 -6 230 -23 348 -56 83 -23 121 -46 96 -55 -7 -3 -13 -8 -13
-13 0 -12 51 -19 75 -10 12 4 34 6 49 3 23 -5 26 -9 20 -27 -4 -11 -6 -37 -6
-56 1 -38 -10 -50 -48 -50 -14 0 -31 -4 -39 -9 -25 -16 23 -31 121 -36 199
-10 253 -18 333 -49 22 -8 50 -15 63 -16 28 0 64 -36 60 -58 -3 -15 -24 -18
-165 -22 -89 -3 -165 -8 -169 -12 -4 -4 5 -17 19 -28 21 -17 25 -27 21 -49
l-6 -28 104 -7 c215 -13 227 -15 244 -48 8 -16 14 -41 12 -56 l-3 -27 -115 -2
c-223 -3 -321 -10 -333 -22 -9 -10 8 -12 83 -10 77 2 103 -2 138 -18 28 -13
58 -19 84 -17 49 4 116 -12 141 -33 23 -22 22 -70 -2 -83 -12 -6 -65 -8 -129
-6 -118 4 -149 -3 -163 -41 -15 -41 7 -51 139 -64 122 -12 152 -23 152 -54 0
-26 -36 -33 -203 -41 -123 -5 -167 -10 -167 -19 0 -18 155 -45 253 -45 90 0
117 -17 117 -73 0 -63 -10 -68 -168 -73 -144 -5 -212 -17 -182 -34 20 -11 117
-27 215 -35 44 -4 88 -11 97 -16 40 -21 30 -116 -15 -136 -21 -10 -21 -10 6
-33 33 -28 36 -66 6 -75 -11 -4 -53 -7 -92 -7 -40 1 -94 -6 -121 -14 -27 -8
-76 -14 -107 -14 -32 0 -60 -4 -63 -9 -7 -10 27 -21 66 -21 15 0 33 -7 41 -15
13 -13 16 -13 21 2 5 13 21 15 109 11 56 -3 114 -11 129 -18 29 -14 42 -52 36
-106 l-3 -29 -105 -8 -105 -8 -28 36 c-16 19 -33 35 -38 35 -5 0 -15 -16 -23
-35 -8 -19 -21 -36 -28 -37 -54 -6 -97 -19 -109 -34 -6 -8 -20 -14 -30 -14
-11 0 -19 -4 -19 -9 0 -17 291 -32 379 -19 19 2 32 -7 59 -41 28 -38 33 -50
27 -78 -3 -19 -1 -58 6 -87 9 -40 9 -58 0 -74 -16 -29 -53 -37 -83 -18 -21 13
-26 13 -56 -1 -40 -19 -52 -39 -45 -76 5 -23 10 -27 42 -27 56 0 104 -18 125
-46 15 -21 18 -42 17 -113 -2 -118 -10 -141 -59 -175 -41 -29 -42 -29 -97 -16
-49 12 -58 12 -72 -2 -23 -24 -7 -38 43 -38 25 0 61 -7 80 -15 20 -8 39 -13
44 -10 4 2 15 -2 26 -9 27 -20 34 -154 29 -537 -4 -356 -8 -418 -37 -609 -11
-74 -23 -159 -27 -188 -9 -64 -26 -86 -39 -51 -5 13 -14 87 -21 164 -14 165
-20 200 -31 188 -16 -16 -40 -145 -40 -217 0 -98 -29 -133 -79 -95 -13 11 -29
19 -36 19 -7 0 -15 7 -19 15 -3 8 -13 15 -22 15 -11 0 -14 -5 -10 -16 11 -29
-2 -52 -27 -47 -14 3 -29 -2 -36 -11 -15 -18 -66 -22 -76 -6 -12 20 -27 9 -42
-30 -14 -34 -20 -40 -46 -40 -23 0 -40 11 -71 45 -40 42 -43 44 -108 48 -69 4
-98 17 -98 47 0 32 -24 42 -59 24 -32 -16 -33 -16 -61 11 l-29 28 -20 -34
c-12 -19 -21 -37 -21 -41 0 -15 -23 -8 -41 13 -24 28 -35 18 -43 -36 -7 -42
-9 -45 -44 -51 -20 -3 -52 -12 -70 -21 -28 -12 -112 -14 -540 -13 -279 0 -563
5 -632 10 -69 5 -217 14 -330 19 -113 6 -215 13 -227 16 -22 5 -40 44 -35 72
3 14 -32 36 -42 26 -3 -3 -6 -21 -6 -38 0 -36 -12 -50 -51 -60 -18 -4 -31 -1
-42 10 -15 14 -16 37 -11 178 2 89 10 175 16 190 6 15 24 35 41 43 25 14 33
14 55 3 22 -12 26 -12 36 4 6 10 28 37 49 60 21 23 47 62 59 86 l21 44 -23 19
c-40 33 -70 34 -123 4 -44 -24 -51 -26 -66 -13 -36 32 -137 79 -189 88 -61 9
-82 1 -82 -35 0 -32 -66 -80 -120 -86 -52 -6 -55 -19 -8 -36 18 -6 53 -30 77
-52 l45 -41 2 -183 c2 -182 -6 -250 -28 -265 -32 -19 -108 10 -108 42 0 7 -7
18 -15 25 -8 7 -20 30 -25 51 -15 54 -26 49 -33 -14 -8 -73 -22 -107 -47 -107
-27 0 -68 66 -90 149 -13 44 -27 72 -44 86 -14 12 -26 26 -26 33 0 6 -11 45
-25 86 -31 91 -32 122 -6 131 53 16 28 74 -42 103 -31 12 -43 25 -59 61 -19
44 -20 45 -34 26 -9 -12 -14 -38 -13 -65 4 -99 -29 -105 -88 -17 -24 35 -43
68 -43 73 0 6 -16 26 -35 44 -44 42 -50 36 -58 -63 -4 -40 -9 -87 -13 -105
-12 -58 -53 -52 -54 8 0 60 -61 94 -80 46 -11 -30 -39 -46 -79 -46 -44 0 -41
-35 7 -78 121 -108 140 -123 177 -132 22 -5 54 -15 70 -21 28 -11 170 -13 187
-3 14 9 48 -22 77 -68 24 -37 29 -59 35 -142 9 -121 1 -136 -78 -136 -29 0
-59 -7 -70 -15 -30 -22 -78 -18 -116 10 -45 33 -57 32 -96 -10 -25 -27 -39
-35 -67 -35 -19 0 -43 3 -52 6 -18 7 -74 92 -95 144 -7 19 -19 42 -27 51 -7 8
-18 31 -24 50 -30 90 -100 216 -166 298 -41 51 -43 55 -26 73 11 12 13 22 6
29 -33 33 -497 32 -518 -1 -3 -5 88 -10 202 -12 174 -4 213 -7 240 -22 37 -19
35 -39 -5 -55 -16 -6 -110 -12 -221 -14 -147 -2 -195 -5 -199 -15 -3 -10 17
-12 85 -11 103 2 282 -37 348 -76 43 -25 95 -93 145 -190 37 -72 62 -207 41
-227 -19 -20 -328 -14 -377 7 -26 11 -68 15 -149 14 -62 -1 -117 1 -123 5 -5
3 -79 6 -163 7 -85 0 -172 5 -194 9 -22 5 -52 11 -67 15 -57 11 -72 90 -38
190 11 32 20 70 20 84 0 14 7 39 16 56 14 27 14 31 0 41 -17 12 -22 44 -8 44
5 0 16 15 24 34 15 30 22 34 71 40 35 5 61 14 73 27 9 10 22 19 28 19 6 0 20
8 31 16 18 14 11 15 -85 9 l-105 -7 -55 -58 c-68 -71 -102 -138 -108 -210 -3
-33 -12 -65 -23 -79 -11 -13 -19 -38 -19 -55 -1 -63 -25 -122 -71 -175 -38
-43 -53 -54 -87 -58 -37 -5 -43 -3 -51 18 -9 24 -54 69 -69 69 -4 0 -13 -10
-20 -21 -12 -18 -20 -21 -59 -16 -63 7 -96 34 -106 88 -7 32 -20 54 -48 80
-22 20 -42 49 -45 67 -3 17 -13 33 -21 37 -12 4 -14 0 -9 -22 3 -16 9 -106 12
-201 6 -191 4 -202 -51 -202 -43 0 -112 64 -119 112 -23 141 -35 222 -41 278
-13 119 -33 204 -51 217 -9 7 -20 10 -24 8 -4 -3 -16 5 -26 17 -11 11 -14 23
-9 25 6 2 17 8 25 13 13 8 13 11 0 23 -21 20 -76 37 -119 37 -55 0 -83 19
-101 70 -9 25 -26 61 -38 80 -12 19 -22 40 -22 47 0 6 -17 25 -37 42 -35 29
-43 31 -113 31 -195 -1 -423 -49 -550 -116 -25 -13 -51 -24 -57 -24 -18 0 -16
-25 2 -40 14 -11 14 -15 1 -29 -8 -9 -22 -36 -32 -61 -19 -51 -70 -110 -95
-110 -22 0 -69 45 -69 67 0 18 35 77 70 118 9 11 23 36 30 55 8 19 27 57 43
83 29 48 30 50 18 115 -11 68 -21 285 -43 974 -9 281 -9 398 -1 461 8 53 8 98
3 123 -5 21 -10 63 -10 92 0 53 19 87 61 106 12 5 12 7 0 12 -40 18 -61 53
-61 102 0 90 9 112 56 141 24 14 44 29 44 33 0 4 -18 12 -40 18 -62 17 -69 34
-74 210 -3 85 -8 189 -12 231 -5 64 -3 82 12 108 17 29 17 31 0 50 -15 17 -17
30 -12 78 4 32 6 67 5 78 -4 56 0 75 20 101 18 23 21 36 16 70 -5 38 -3 46 35
88 22 26 40 51 40 55 0 5 -9 20 -20 34 -42 53 -20 75 112 112 54 15 98 32 98
36 0 5 -7 9 -15 9 -19 0 -20 19 -1 26 8 3 19 19 25 34 6 20 26 38 61 57 29 15
67 38 85 49 18 12 49 27 69 34 20 6 36 16 36 21 0 14 61 38 78 31 11 -4 13 0
7 18 -6 19 2 32 49 76 45 43 64 54 90 54 31 0 76 32 68 49 -2 3 7 8 20 11 13
3 29 17 35 32 13 25 73 78 90 78 4 0 15 13 24 28 11 19 30 32 60 41 24 7 52
20 61 28 14 13 39 19 93 22 6 1 23 12 39 26 23 20 40 25 83 25 32 0 69 7 91
19 20 10 89 28 152 41 115 23 160 37 160 50 0 13 -60 18 -240 19 -184 1 -267
8 -276 22 -11 18 47 40 132 50 49 6 103 17 121 24 28 12 31 17 29 51 -2 47 9
57 86 83 35 12 77 30 93 41 81 54 103 65 179 90 44 15 100 31 123 35 63 10 61
23 -4 31 -126 15 -123 38 11 104 68 33 106 58 109 70 3 12 14 20 26 20 33 0
70 21 64 36 -9 24 15 41 65 49 47 7 94 26 122 50 8 7 45 16 82 20 37 3 80 10
95 14 l28 8 -25 7 c-14 3 -52 12 -84 18 -33 7 -61 18 -63 25 -7 19 119 137
162 152 35 12 64 28 160 89 95 60 207 90 398 107 45 5 67 11 64 18 -2 7 -15
13 -28 13 -13 1 -31 4 -39 7 -8 3 -53 11 -100 16 -94 12 -116 24 -85 47 11 8
31 17 45 20 71 15 130 38 130 50 0 8 12 16 28 20 15 3 32 7 37 9 13 3 34 -1
70 -15z m1425 -145 c0 -69 -4 -125 -9 -125 -14 0 -21 66 -16 145 2 39 4 78 5
88 0 9 5 17 10 17 6 0 10 -48 10 -125z m10 -199 c13 -25 8 -56 -9 -56 -16 0
-33 39 -26 60 8 27 19 25 35 -4z m1897 -824 c10 -6 13 -54 14 -178 0 -93 0
-175 0 -182 -1 -8 -11 -12 -28 -10 -24 3 -29 9 -40 58 -7 30 -11 73 -8 95 4
32 0 52 -20 90 -31 58 -28 106 8 123 27 13 58 15 74 4z m828 -1316 c44 -19 44
-31 0 -46 -28 -9 -39 -9 -50 0 -18 15 -19 32 -3 48 15 15 12 15 53 -2z m-6713
-3273 c76 -54 87 -83 41 -102 -42 -16 -159 -32 -223 -30 -47 2 -63 -2 -91 -23
-60 -43 -113 -61 -161 -54 -61 9 -69 17 -75 70 -6 52 12 90 49 101 13 4 52 17
88 30 60 22 205 50 275 54 21 1 50 -13 97 -46z m278 -214 c68 1 86 -8 71 -37
-6 -11 -11 -34 -11 -51 0 -17 -7 -48 -15 -68 -8 -21 -21 -74 -30 -117 -8 -44
-23 -95 -33 -115 -11 -20 -22 -58 -26 -85 -9 -59 -50 -142 -78 -157 -16 -9
-26 -7 -49 10 -15 12 -32 21 -37 21 -10 0 -26 -56 -37 -121 -3 -21 -20 -52
-40 -75 l-35 -39 -92 3 c-167 4 -254 29 -276 78 -6 12 -26 27 -45 33 -19 7
-49 30 -67 52 -33 41 -85 71 -147 84 -29 6 -33 4 -33 -13 0 -12 13 -31 29 -44
16 -13 41 -47 56 -76 25 -49 27 -59 21 -129 -6 -67 -11 -80 -43 -120 -47 -58
-79 -73 -151 -73 -41 0 -63 -5 -72 -15 -30 -37 -86 -3 -121 73 -19 40 -12 60
19 57 28 -2 40 -13 47 -45 11 -49 26 -34 24 23 -1 44 4 62 35 114 40 68 49
127 19 121 -14 -3 -18 -14 -19 -53 -1 -42 -4 -50 -25 -59 -13 -6 -30 -19 -37
-28 -17 -24 -48 -23 -79 2 -14 11 -31 20 -38 20 -18 0 -45 34 -54 66 -11 43
-44 44 -59 2 -26 -72 -92 -110 -92 -53 0 32 118 263 141 276 11 6 46 7 82 4
l62 -6 -30 25 c-16 15 -38 28 -47 31 -34 11 -39 100 -9 145 30 44 54 108 48
130 -4 14 3 28 21 45 15 14 30 25 34 25 3 0 14 7 22 16 26 25 181 61 316 73
285 25 381 34 500 46 69 7 170 11 225 9 55 -3 125 -5 155 -5z m2945 -74 c0
-23 -4 -30 -20 -30 -21 0 -31 25 -21 51 11 28 41 12 41 -21z m596 -32 c15 -39
15 -248 0 -266 -9 -11 -8 -21 5 -44 22 -37 13 -63 -21 -63 -24 0 -25 3 -25 53
0 30 -3 57 -7 61 -11 11 -3 247 8 269 14 25 28 21 40 -10z m-2386 -432 c44 -6
107 -13 140 -16 33 -4 67 -8 75 -10 15 -4 214 -17 300 -20 25 0 61 -4 80 -8
119 -22 462 -31 635 -16 72 6 144 10 160 10 174 -6 239 3 292 37 16 10 32 12
50 6 16 -4 43 -8 61 -8 31 -1 35 -5 52 -53 10 -29 25 -62 34 -75 35 -50 10
-98 -50 -97 -61 2 -63 1 -78 -36 -15 -36 -54 -59 -81 -49 -21 8 -30 -22 -15
-50 10 -19 8 -29 -9 -62 -12 -21 -21 -46 -21 -56 0 -24 -132 -158 -156 -158
-11 0 -42 19 -69 43 -49 45 -58 71 -40 127 13 40 92 63 136 40 19 -11 25 -1
20 37 -1 6 3 14 9 18 17 11 11 43 -14 71 -21 25 -26 27 -52 16 -65 -26 -203
-61 -245 -61 -24 -1 -84 1 -133 2 l-88 3 -10 -27 c-5 -16 -19 -30 -33 -33 -31
-8 -75 13 -75 35 0 10 -6 22 -14 26 -7 4 -18 18 -24 29 -20 38 -119 81 -230
99 -81 14 -106 15 -115 5 -9 -9 -6 -16 13 -28 35 -23 90 -83 90 -99 0 -7 6
-22 13 -34 11 -18 8 -24 -22 -51 -34 -31 -38 -31 -113 -12 -22 5 -28 3 -28
-10 0 -9 13 -19 31 -24 24 -6 35 -17 46 -45 14 -35 14 -38 -11 -68 -15 -17
-26 -43 -26 -59 0 -16 -11 -42 -25 -58 -14 -17 -25 -36 -25 -43 0 -22 -74
-120 -102 -135 -38 -20 -52 -18 -87 11 -58 50 -80 196 -36 245 25 27 34 25 78
-15 42 -38 62 -44 71 -19 10 26 7 32 -30 66 -20 18 -40 44 -45 57 -7 17 -14
21 -27 16 -36 -15 -93 -17 -122 -5 -22 9 -33 22 -40 52 -12 41 -34 58 -52 40
-8 -8 -8 -18 0 -37 14 -30 1 -65 -25 -65 -22 0 -93 81 -93 106 0 12 14 38 30
59 32 40 38 77 18 120 -15 32 -26 32 -38 -2 -6 -16 -19 -44 -30 -64 -11 -20
-20 -43 -20 -52 0 -8 -6 -19 -13 -25 -18 -15 -53 9 -61 43 -4 14 -13 25 -22
25 -8 0 -21 15 -29 33 -8 19 -21 39 -29 47 -21 17 -20 24 9 51 17 17 25 35 25
58 0 46 34 115 68 138 26 17 71 32 82 27 3 -1 41 -7 85 -13z m-445 -15 c0 -15
-21 -26 -51 -26 -18 0 -26 20 -12 33 12 13 63 7 63 -7z m5407 -8 c7 -13 9 -18
11 -50 2 -16 55 -78 67 -78 25 0 77 34 85 55 10 26 38 33 57 14 9 -9 24 -4 61
20 65 41 93 40 138 -5 79 -82 81 -133 8 -165 -55 -25 -208 -42 -287 -33 -56 6
-60 8 -97 58 -21 28 -53 68 -71 88 -27 32 -30 43 -25 73 5 25 12 35 26 35 10
0 22 -6 27 -12z m-945 -139 c22 -12 24 -57 4 -84 -10 -14 -32 -21 -77 -26 -74
-8 -390 -3 -704 11 -121 5 -332 15 -470 20 -303 13 -344 17 -362 36 -18 18
-11 30 24 39 81 21 1546 25 1585 4z m411 0 c9 -6 17 -16 17 -24 0 -7 3 -20 6
-29 7 -19 -31 -36 -95 -42 -25 -3 -63 -9 -85 -14 -97 -23 -126 -8 -126 62 0
37 8 52 30 61 21 9 231 -3 253 -14z m-5398 -3 c69 -2 123 -9 144 -19 23 -10
44 -12 62 -7 19 6 57 0 124 -18 l97 -26 60 33 c52 29 63 32 83 21 30 -16 41
-58 21 -79 -11 -10 -39 -16 -93 -18 -43 -1 -90 -8 -105 -14 -21 -9 -55 -9
-136 -1 -136 14 -289 15 -298 1 -11 -18 6 -24 80 -26 39 -1 83 -4 96 -7 14 -3
58 -8 99 -11 40 -3 83 -12 95 -20 11 -7 43 -17 70 -21 82 -12 134 -51 149
-115 4 -15 15 -29 25 -31 21 -6 39 -75 46 -182 9 -120 -43 -199 -118 -180 -35
8 -85 107 -89 173 -2 45 -1 46 40 66 42 19 71 61 60 88 -4 12 -111 15 -255 6
-12 0 -38 11 -57 26 -27 20 -42 25 -64 20 -21 -4 -35 0 -57 19 -19 15 -49 27
-79 31 -28 3 -66 12 -85 20 -19 7 -61 23 -92 35 -45 17 -59 28 -67 52 -21 59
-11 107 32 172 18 26 24 28 61 22 23 -4 91 -8 151 -10z m-970 -226 c0 -7 -6
-15 -12 -17 -8 -3 -13 4 -13 17 0 13 5 20 13 18 6 -3 12 -11 12 -18z m235 -20
c10 6 21 14 25 19 3 6 17 6 36 -1 24 -8 33 -8 39 2 11 17 49 -7 107 -68 77
-80 57 -92 -147 -84 -166 5 -190 11 -190 45 0 38 20 90 43 110 20 18 21 17 44
-8 19 -20 28 -23 43 -15z m1440 30 c21 -11 43 -70 34 -93 -8 -23 -31 -28 -48
-11 -26 25 -34 114 -11 114 4 0 15 -4 25 -10z m-551 -236 c18 -13 36 -15 77
-10 49 6 56 4 86 -23 30 -27 33 -35 32 -83 -1 -44 -8 -63 -40 -110 -36 -55
-40 -58 -80 -58 -58 0 -84 24 -90 80 -2 25 -14 58 -25 74 -31 41 -38 115 -14
133 24 17 26 16 54 -3z m-1579 -138 c0 -2 -7 -6 -15 -10 -8 -3 -15 -1 -15 4 0
6 7 10 15 10 8 0 15 -2 15 -4z"/>
<path d="M5095 7780 c-300 -5 -334 -7 -359 -24 -27 -17 -28 -20 -20 -70 9 -54
13 -1251 4 -1346 l-5 -55 465 -5 c402 -5 470 -8 503 -22 20 -10 37 -21 37 -26
0 -25 -75 -43 -217 -54 -156 -11 -796 -4 -868 9 -61 12 -113 5 -120 -16 -9
-30 5 -51 34 -51 15 0 31 -4 36 -9 32 -29 96 -33 655 -35 406 -2 576 0 592 8
16 8 24 22 26 44 3 28 -1 35 -29 50 -54 28 -83 60 -69 77 10 13 10 43 -5 210
-3 28 -8 307 -11 620 -6 520 -6 573 10 602 9 18 25 37 36 43 28 15 25 39 -6
50 -15 6 -99 9 -193 8 -91 -2 -315 -5 -496 -8z m210 -172 c14 -6 28 -22 31
-35 4 -13 2 -135 -3 -271 -7 -178 -7 -250 1 -259 13 -14 82 -17 192 -7 76 6
83 5 93 -14 14 -26 5 -51 -23 -57 -11 -3 -60 -4 -108 -3 -79 3 -89 1 -110 -20
-22 -21 -23 -31 -27 -205 -2 -100 -4 -208 -4 -239 l1 -58 -60 0 c-58 0 -60 1
-53 23 10 32 8 444 -3 492 -5 23 -5 53 0 70 9 30 7 78 -12 400 -10 156 -9 171
7 182 21 16 45 16 78 1z m-336 -21 c7 -9 14 -117 18 -308 l8 -294 33 -14 c40
-18 41 -36 2 -56 -17 -9 -35 -27 -40 -40 -5 -14 -11 -93 -14 -177 -2 -84 -7
-160 -11 -169 -4 -11 6 -26 30 -48 20 -17 33 -35 30 -41 -3 -5 -26 -12 -50
-16 -34 -5 -51 -2 -70 10 l-25 16 1 473 c0 259 4 507 8 549 11 104 46 155 80
115z"/>
<path d="M2590 6943 c0 -4 5 -15 10 -23 8 -13 10 -13 10 2 0 9 -4 20 -10 23
-5 3 -10 3 -10 -2z"/>
<path d="M2550 6920 c0 -5 5 -10 10 -10 6 0 10 5 10 10 0 6 -4 10 -10 10 -5 0
-10 -4 -10 -10z"/>
<path d="M8698 5795 c-8 -7 -679 -18 -1272 -20 -458 -2 -671 -6 -679 -14 -12
-12 14 -47 43 -56 36 -12 52 -104 31 -185 -25 -95 -41 -293 -31 -400 4 -52 8
-264 8 -472 0 -412 4 -378 -63 -461 -18 -22 -39 -37 -52 -37 -30 0 -37 -14
-44 -99 l-6 -74 -56 -51 c-56 -51 -57 -51 -50 -96 8 -60 19 -79 55 -94 22 -10
41 -11 72 -3 54 13 69 27 28 27 -18 0 -32 3 -32 8 0 4 39 9 88 11 106 4 466 6
507 2 17 -2 93 -2 170 -2 240 2 399 -5 422 -17 12 -7 33 -12 48 -12 25 0 73
-24 86 -44 12 -16 40 3 51 34 11 32 69 72 123 85 40 9 57 24 50 45 -3 9 1 23
10 30 26 21 17 38 -36 67 -53 28 -69 53 -69 103 0 89 174 77 209 -14 18 -48 5
-107 -26 -120 -13 -6 -23 -22 -26 -44 -8 -45 -3 -54 41 -77 46 -25 71 -73 78
-156 l6 -64 -59 -62 c-34 -35 -69 -63 -83 -65 -22 -3 -25 -8 -25 -41 0 -27 -6
-43 -19 -53 -28 -20 -36 -18 -36 9 0 12 -7 33 -16 46 -17 24 -11 37 21 43 11
2 21 11 23 21 4 19 -22 32 -78 40 -19 2 -52 15 -73 27 -21 12 -37 19 -36 14 3
-20 -1 -44 -8 -42 -5 1 -21 -4 -38 -11 -16 -7 -45 -14 -63 -16 -37 -3 -50 -11
-36 -24 19 -19 52 -22 67 -6 22 21 28 19 73 -19 21 -18 49 -36 62 -40 12 -4
27 -16 33 -27 5 -11 21 -24 35 -29 29 -11 30 -34 4 -78 -24 -39 -25 -61 -5
-88 8 -10 15 -29 15 -40 0 -12 6 -27 14 -33 12 -10 18 -7 32 16 37 62 87 134
97 140 10 6 48 -36 74 -82 23 -42 22 -136 -4 -220 -12 -38 -24 -82 -27 -97 -8
-37 -54 -88 -93 -104 -39 -17 -128 -18 -188 -3 -43 11 -79 36 -87 61 -4 11 -8
10 -21 -1 -24 -19 -78 -6 -105 27 -102 122 -119 171 -92 267 17 60 51 85 118
85 34 0 57 -6 75 -20 31 -25 39 -25 60 -2 21 23 22 42 3 42 -8 0 -36 15 -63
33 -43 29 -85 48 -196 89 -15 6 -36 21 -46 34 -28 36 -46 29 -67 -23 -16 -43
-18 -76 -16 -293 3 -259 8 -290 52 -290 10 0 22 -5 25 -11 7 -10 41 -26 80
-36 42 -11 405 -24 510 -18 61 3 117 6 125 5 74 -2 425 2 431 6 5 3 1 19 -7
37 -14 30 -14 39 -1 83 13 44 19 122 21 278 1 31 -4 51 -11 53 -9 3 -13 -9
-13 -39 -1 -23 -7 -61 -15 -83 -8 -22 -15 -57 -15 -77 0 -66 -24 -183 -40
-195 -8 -7 -23 -13 -32 -13 -21 0 -61 37 -54 49 3 5 10 62 16 127 9 97 16 131
40 183 33 70 38 101 15 101 -8 0 -15 4 -15 8 0 5 -11 14 -25 20 -20 9 -30 9
-45 0 -11 -7 -20 -16 -20 -19 0 -4 -9 -9 -19 -12 -17 -4 -19 -15 -19 -103 -1
-147 -8 -173 -49 -174 -25 0 -19 243 6 280 30 45 19 62 -86 131 -44 28 -45 71
-3 119 36 43 37 63 4 93 -38 35 -35 77 7 116 22 20 45 31 64 31 27 0 31 -3 30
-27 0 -23 4 -28 25 -28 18 0 25 5 25 20 0 32 13 43 59 50 55 9 84 -6 81 -39
-5 -39 18 -51 65 -37 44 13 51 26 20 36 -11 3 -20 13 -20 22 0 11 9 14 38 12
20 -2 54 1 75 5 48 10 117 -8 117 -30 0 -8 11 -30 25 -48 13 -18 26 -43 28
-57 3 -21 11 -25 72 -35 78 -13 83 -12 145 32 78 56 91 157 27 205 -18 13 -43
26 -56 29 -15 3 -27 14 -31 30 -4 14 -17 46 -29 72 -11 26 -21 58 -21 72 0 15
-13 38 -30 56 -16 17 -32 43 -36 58 -3 15 -8 35 -10 44 -3 9 -20 22 -39 28
-18 6 -44 21 -57 34 -23 20 -26 33 -37 177 -15 199 -15 174 -3 539 5 173 8
320 5 327 -12 30 -39 33 -74 7 -36 -27 -74 -27 -146 -2 -26 9 -38 9 -59 -3
-17 -9 -54 -14 -101 -13 -61 1 -78 5 -97 23 -22 21 -23 21 -40 2 -13 -14 -37
-20 -103 -26 -77 -6 -88 -5 -114 14 -33 25 -52 26 -69 6 -9 -11 -34 -15 -96
-15 -93 0 -119 13 -152 79 -25 52 -41 51 -35 -2 5 -39 2 -46 -22 -65 -30 -24
-78 -28 -134 -12 -37 10 -63 40 -73 85 -4 16 -14 59 -22 95 -20 85 -34 192
-29 207 7 18 79 35 116 28 34 -7 87 -51 87 -70 0 -16 35 -47 43 -38 4 3 7 18
7 32 0 32 8 44 37 60 51 27 122 -1 159 -63 9 -16 30 -43 46 -59 15 -17 33 -47
38 -69 6 -21 13 -38 15 -38 9 0 -8 95 -21 115 -17 27 -27 107 -15 125 7 10 26
14 68 12 96 -4 121 -17 149 -76 13 -28 24 -57 24 -64 0 -8 9 -25 20 -39 11
-14 20 -35 20 -47 0 -23 17 -46 33 -46 13 0 1 70 -18 106 -8 16 -15 52 -15 81
0 61 13 73 82 73 31 0 55 -8 86 -29 l43 -28 29 28 c39 40 91 40 130 0 16 -16
32 -41 35 -57 14 -65 51 -167 63 -171 6 -3 12 -10 12 -17 0 -6 7 -22 16 -35
24 -34 43 -11 19 25 -17 26 -75 257 -75 299 0 11 5 26 11 32 18 18 2 62 -24
67 -27 6 -155 15 -159 11z m-1146 -142 c42 -38 85 -167 92 -278 4 -60 -5 -80
-45 -101 -41 -21 -148 -20 -189 1 -42 22 -48 45 -33 128 8 40 18 104 23 142
12 84 26 122 48 129 30 8 84 -3 104 -21z m-451 7 c27 -15 26 -106 -2 -162 -12
-23 -27 -63 -35 -90 -8 -26 -18 -48 -23 -48 -4 0 -12 -15 -17 -32 -13 -44 -45
-58 -108 -48 -65 10 -79 29 -73 100 7 84 74 249 112 276 23 16 117 19 146 4z
m214 -4 c17 -12 18 -24 12 -150 -5 -90 -3 -144 4 -157 13 -26 3 -56 -24 -71
-27 -15 -169 -21 -202 -8 -14 5 -30 21 -36 34 -9 20 -8 30 8 53 24 35 79 173
92 231 13 61 35 82 86 82 22 0 50 -6 60 -14z m-52 -494 c27 -23 36 -110 35
-358 0 -133 2 -246 5 -251 4 -6 2 -24 -4 -41 -8 -24 -7 -37 6 -62 23 -44 30
-130 13 -152 -11 -14 -24 -15 -90 -9 -43 5 -85 14 -93 21 -9 8 -15 30 -15 59
-1 64 -19 85 -64 77 -39 -7 -44 -17 -22 -35 18 -15 30 -64 21 -90 -7 -22 -53
-36 -84 -26 -20 6 -38 47 -44 100 -2 17 -9 40 -15 51 -13 25 -17 152 -7 207 5
24 3 42 -5 52 -8 10 -11 73 -10 212 1 219 5 236 63 251 51 14 291 9 310 -6z
m310 9 c14 -6 28 -19 32 -31 4 -11 6 -111 6 -223 -1 -111 -1 -213 -1 -227 5
-360 4 -390 -12 -406 -14 -14 -22 -15 -45 -6 -15 6 -50 11 -77 11 -26 0 -53 4
-59 10 -10 10 -12 67 -7 178 2 24 -2 49 -8 55 -21 27 -22 94 -2 132 24 44 24
41 3 62 -15 15 -18 40 -20 173 -1 86 -3 178 -5 206 -3 44 0 51 22 62 29 15
138 17 173 4z m337 -9 l22 -18 2 -435 c0 -238 -2 -446 -7 -461 -6 -23 -13 -28
-40 -28 -86 1 -117 41 -129 170 -19 228 -21 270 -9 299 9 19 10 35 3 48 -5 10
-11 108 -13 218 l-4 199 25 13 c38 19 124 16 150 -5z m341 -18 c23 -25 24 -30
25 -202 0 -99 -4 -189 -10 -204 -8 -22 -7 -34 5 -55 9 -16 15 -39 13 -53 -2
-14 -5 -98 -8 -188 -3 -90 -8 -167 -11 -172 -3 -5 -36 -6 -73 -3 -55 4 -70 2
-81 -11 -17 -20 -57 -21 -65 -1 -3 8 -6 63 -7 122 -1 59 -5 118 -10 131 -6 15
-5 54 3 106 7 44 12 173 12 286 1 255 2 257 103 263 38 2 71 4 74 5 3 1 16
-10 30 -24z m237 0 c21 -15 25 -15 41 0 24 22 126 21 166 -1 19 -10 54 -17 94
-17 88 -1 99 -17 107 -151 3 -55 8 -108 11 -119 9 -33 4 -130 -11 -179 -9 -29
-14 -90 -14 -157 0 -60 -4 -115 -9 -122 -4 -7 -10 -42 -13 -77 -6 -77 -24 -95
-67 -69 -16 9 -39 14 -54 11 -22 -4 -28 0 -37 25 -12 36 3 112 23 112 13 0 25
-30 25 -66 0 -12 7 -27 15 -34 12 -10 16 -8 25 15 17 45 12 83 -12 99 -47 30
-105 40 -149 27 l-42 -13 6 -53 c4 -41 1 -59 -14 -84 -19 -31 -21 -32 -86 -29
-58 3 -68 6 -86 30 -17 23 -18 32 -9 90 5 34 13 72 16 83 5 14 -3 31 -24 55
-35 41 -35 45 -14 96 16 38 17 84 10 463 -1 68 51 101 102 65z m-893 -1005
c118 -1 219 -6 230 -11 41 -21 65 -51 65 -83 0 -69 34 -65 -572 -71 -502 -5
-549 -4 -572 11 -26 18 -33 43 -17 61 5 5 11 20 13 33 2 17 16 32 46 47 43 23
47 23 320 19 153 -3 372 -5 487 -6z m1419 -21 c7 -9 13 -46 14 -82 3 -87 -7
-93 -130 -89 -91 2 -163 9 -203 19 -11 3 -56 6 -100 8 -93 4 -146 12 -155 23
-13 15 -32 90 -28 109 3 17 15 19 133 24 72 3 203 5 293 5 142 0 165 -2 176
-17z m-484 -1253 c0 -60 -3 -77 -16 -82 -34 -13 -45 57 -19 121 24 56 35 43
35 -39z"/>
<path d="M8716 4724 c-11 -11 -14 -20 -8 -26 13 -13 84 12 79 27 -6 17 -54 17
-71 -1z"/>
<path d="M8417 4724 c-4 -4 -7 -11 -7 -16 0 -13 50 -6 53 7 2 12 -36 19 -46 9z"/>
<path d="M5725 5687 c-15 -9 -285 -12 -1181 -12 -934 0 -1164 -3 -1176 -13
-12 -9 -16 -30 -15 -70 1 -41 -5 -69 -21 -99 -28 -54 -42 -138 -22 -131 8 2
32 34 53 70 54 90 141 138 197 108 16 -8 18 -18 13 -66 -6 -54 -5 -56 14 -44
11 7 25 28 32 46 29 81 131 102 131 26 0 -30 -29 -122 -45 -142 -17 -21 -25
-73 -15 -90 9 -15 22 9 36 68 4 15 18 40 31 56 15 18 22 37 19 49 -11 45 50
115 104 118 49 3 77 -8 83 -34 8 -34 -1 -97 -22 -147 -19 -46 -41 -129 -41
-155 0 -21 19 -19 26 3 29 86 124 265 160 300 38 36 59 40 93 16 20 -15 22
-21 16 -68 -9 -67 -29 -150 -51 -207 -10 -25 -15 -53 -11 -62 12 -31 34 -18
52 31 10 26 29 60 41 75 13 15 28 45 34 67 14 52 57 145 74 159 8 7 29 14 48
17 51 9 70 -18 69 -100 0 -69 12 -89 22 -33 11 64 36 107 73 125 36 16 36 16
56 -8 17 -21 19 -37 17 -120 -2 -52 -8 -113 -14 -135 -6 -22 -10 -48 -7 -58 5
-26 35 -17 44 13 57 188 85 267 101 283 18 18 35 19 102 4 11 -2 37 2 59 9 48
17 51 17 70 -1 26 -26 33 -76 26 -175 -4 -52 -4 -101 0 -108 10 -19 77 124 86
183 10 69 41 109 88 113 40 4 63 -10 76 -44 13 -34 14 -206 1 -237 -6 -16 -11
-40 -11 -55 0 -15 -4 -31 -8 -37 -9 -13 -70 -45 -85 -45 -6 0 -26 -15 -45 -32
-33 -33 -33 -33 -129 -31 -78 2 -100 5 -114 20 -15 16 -28 65 -29 116 0 21
-20 23 -20 2 0 -8 -4 -15 -8 -15 -5 0 -14 -23 -21 -50 -17 -66 -43 -84 -100
-71 -45 10 -81 35 -81 58 0 7 -4 13 -10 13 -5 0 -10 -8 -10 -18 0 -31 -33 -52
-82 -52 -49 0 -74 18 -80 59 -5 39 -25 36 -52 -8 -35 -54 -62 -60 -130 -27
-63 31 -62 31 -92 7 -38 -30 -95 -35 -156 -16 -29 10 -57 21 -62 26 -16 14
-36 11 -63 -11 -41 -32 -141 -21 -178 20 -23 25 -30 25 -56 -1 -13 -13 -39
-24 -63 -26 -36 -4 -45 -1 -70 26 -29 30 -29 30 -12 71 17 43 21 90 8 90 -9 0
-32 -44 -32 -59 0 -5 -18 -36 -41 -70 l-41 -61 -56 0 c-66 0 -77 5 -92 44 -16
43 -32 19 -28 -44 2 -35 8 -55 18 -60 72 -36 122 -47 256 -56 149 -10 144 -3
155 -210 5 -93 6 -236 3 -319 -4 -82 -8 -211 -9 -285 -2 -136 -7 -174 -30
-220 -17 -34 -25 -84 -15 -100 6 -10 172 -14 770 -18 l762 -5 26 -22 26 -22
-25 -14 c-18 -10 -88 -14 -269 -17 -135 -2 -459 -6 -720 -10 -447 -7 -578 -4
-676 13 -35 6 -45 4 -64 -15 -14 -14 -18 -25 -12 -33 5 -7 12 -31 15 -55 3
-23 11 -50 18 -58 20 -25 63 -10 107 37 l39 43 149 -14 c250 -23 1393 -16
1515 9 82 17 99 30 99 71 l0 37 -51 5 c-27 3 -54 9 -59 14 -9 9 -36 152 -38
199 -1 11 -4 206 -8 433 -6 424 -4 460 33 535 13 26 17 27 91 27 42 0 107 3
144 6 67 7 68 7 87 48 26 53 40 122 45 216 5 94 21 186 41 235 17 39 61 65
113 65 44 0 58 22 36 59 -14 24 -16 35 -7 54 17 37 -3 48 -42 24z m-226 -146
c13 -8 13 -21 3 -88 -7 -43 -12 -103 -12 -134 0 -66 -50 -227 -77 -247 -22
-17 -111 -8 -132 13 -12 12 -12 21 1 67 8 29 13 68 10 87 -4 26 1 38 20 56 19
17 29 42 37 92 7 37 15 81 18 96 7 40 40 67 82 67 20 0 42 -4 50 -9z m-1538
-599 c19 -15 52 -46 73 -69 l38 -42 -4 -76 c-2 -42 0 -79 5 -82 15 -9 -3 -126
-24 -155 -10 -15 -19 -32 -19 -38 0 -6 -14 -19 -31 -29 -29 -18 -27 -37 3 -26
23 9 35 -14 46 -84 11 -77 8 -131 -8 -158 -10 -15 -9 -29 4 -68 26 -75 17 -80
-155 -80 -137 0 -141 1 -160 24 -15 19 -18 32 -12 55 4 17 6 59 4 94 -3 85 12
125 57 154 20 12 42 24 47 27 16 6 45 33 45 43 0 4 -18 8 -40 8 -46 0 -86 16
-96 39 -13 29 -14 353 -2 399 16 61 63 92 138 92 44 -1 62 -6 91 -28z m354 7
c84 -21 80 0 81 -443 0 -215 4 -406 8 -424 5 -21 4 -38 -2 -44 -15 -15 -200
-13 -218 3 -20 17 -17 35 8 53 18 13 22 24 20 63 -2 27 -7 62 -13 79 -6 19 -6
59 -1 103 8 66 6 77 -15 116 -26 49 -30 110 -11 161 10 29 9 36 -8 55 -17 19
-19 34 -16 120 1 55 7 111 12 124 16 43 72 55 155 34z m427 -15 c26 -8 32 -39
29 -159 -2 -94 -5 -112 -22 -128 -24 -22 -24 -35 -1 -60 18 -21 24 -101 21
-302 -2 -187 -5 -235 -15 -244 -9 -10 -84 -14 -190 -12 -71 1 -86 17 -54 58
11 14 17 30 13 36 -3 6 -7 76 -9 156 -2 131 -7 188 -18 243 -2 10 0 35 5 55 6
27 4 54 -7 91 -9 31 -13 68 -10 90 4 20 8 59 11 86 6 68 12 81 38 94 21 11
167 8 209 -4z m305 -29 c17 -7 34 -23 38 -35 12 -37 22 -264 13 -289 -8 -23
-4 -138 8 -192 3 -15 -2 -44 -11 -65 -12 -28 -17 -72 -17 -157 l-1 -118 -30
-16 c-34 -17 -149 -15 -167 3 -17 17 -24 862 -8 881 9 12 26 13 78 8 36 -4 79
-13 97 -20z"/>
<path d="M3855 4810 c-8 -13 2 -59 17 -77 16 -20 30 -15 23 6 -3 11 -8 30 -10
42 -6 29 -21 44 -30 29z"/>
<path d="M3880 4675 c0 -8 2 -15 4 -15 2 0 11 -3 19 -6 12 -4 14 0 10 15 -6
24 -33 29 -33 6z"/>
<path d="M2770 5591 c0 -54 8 -71 35 -71 34 0 37 11 19 64 -11 33 -21 46 -35
46 -15 0 -19 -7 -19 -39z"/>
<path d="M8654 5546 c-6 -17 2 -36 17 -36 12 0 12 37 -1 45 -6 3 -13 -1 -16
-9z"/>
<path d="M7885 5520 c12 -69 16 -80 26 -80 15 0 1 81 -17 100 -13 13 -14 10
-9 -20z"/>
<path d="M3534 5389 c-17 -22 -23 -45 -14 -59 11 -17 32 23 28 52 -2 18 -5 19
-14 7z"/>
<path d="M4836 5344 c-3 -9 -6 -29 -6 -46 0 -26 2 -29 15 -18 8 7 15 28 15 46
0 35 -13 46 -24 18z"/>
<path d="M3258 5294 c-5 -4 -8 -21 -8 -38 1 -26 2 -28 11 -13 11 19 8 63 -3
51z"/>
<path d="M9757 4124 c-10 -11 3 -24 24 -24 10 0 19 7 19 15 0 15 -31 21 -43 9z"/>
<path d="M6770 3754 c0 -13 42 -23 62 -15 21 9 21 10 3 12 -11 1 -30 3 -42 4
-13 1 -23 1 -23 -1z"/>
<path d="M7650 3538 c-36 -39 -20 -63 31 -46 25 9 31 30 15 56 -11 17 -22 15
-46 -10z"/>
<path d="M4495 3131 c-3 -5 0 -13 5 -16 15 -9 80 4 80 15 0 13 -77 13 -85 1z"/>
<path d="M3641 3014 c0 -11 3 -14 6 -6 3 7 2 16 -1 19 -3 4 -6 -2 -5 -13z"/>
<path d="M2033 2673 c-21 -8 -15 -30 10 -37 39 -10 67 -7 61 8 -4 11 -49 38
-57 35 -1 0 -8 -3 -14 -6z"/>
<path d="M2148 2618 c8 -8 17 -8 34 0 22 10 21 11 -11 11 -27 1 -32 -2 -23
-11z"/>
<path d="M1890 2524 c0 -8 5 -12 10 -9 6 3 10 10 10 16 0 5 -4 9 -10 9 -5 0
-10 -7 -10 -16z"/>
<path d="M2209 2478 c-1 -13 0 -60 1 -105 2 -76 0 -84 -23 -106 -34 -30 -23
-51 19 -37 23 8 36 24 57 73 33 77 34 107 2 157 -28 44 -54 52 -56 18z"/>
<path d="M4230 2380 c0 -33 24 -50 42 -32 17 17 1 62 -22 62 -16 0 -20 -7 -20
-30z"/>
<path d="M4462 2363 c3 -48 3 -48 37 -45 34 2 61 17 61 32 0 9 -76 60 -90 60
-7 0 -10 -18 -8 -47z"/>
<path d="M4715 2391 c-9 -30 4 -63 23 -59 12 2 17 14 17 38 0 40 -29 55 -40
21z"/>
<path d="M4602 2357 c-14 -17 -5 -82 14 -98 17 -14 24 1 27 62 2 46 -18 64
-41 36z"/>
<path d="M4670 2184 c0 -9 5 -14 12 -12 18 6 21 28 4 28 -9 0 -16 -7 -16 -16z"/>
<path d="M5891 2162 c-8 -18 -11 -35 -8 -38 8 -9 29 35 25 54 -2 12 -8 7 -17
-16z"/>
<path d="M4827 2103 c-16 -15 -6 -33 18 -33 18 0 25 5 25 20 0 20 -28 28 -43
13z"/>
<path d="M6550 10104 c0 -11 5 -14 16 -10 9 3 20 6 25 6 5 0 9 5 9 10 0 6 -11
10 -25 10 -16 0 -25 -6 -25 -16z"/>
<path d="M9084 7835 c-3 -8 -3 -19 1 -25 9 -14 35 6 35 26 0 19 -29 18 -36 -1z"/>
<path d="M2475 1890 c-3 -5 -3 -10 2 -11 4 0 16 -2 27 -4 22 -4 46 4 46 16 0
12 -67 11 -75 -1z"/>
</g>
</svg>
