<?xml version="1.0" standalone="no"?>
<!DOCTYPE svg PUBLIC "-//W3C//DTD SVG 20010904//EN"
 "http://www.w3.org/TR/2001/REC-SVG-20010904/DTD/svg10.dtd">
<svg version="1.0" xmlns="http://www.w3.org/2000/svg"
 width="328.000000pt" height="328.000000pt" viewBox="0 0 328.000000 328.000000"
 preserveAspectRatio="xMidYMid meet">

<g transform="translate(0.000000,328.000000) scale(0.100000,-0.100000)"
fill="#BD6C4C" stroke="none">
<path d="M555 3004 c-22 -9 -65 -21 -95 -28 -117 -27 -193 -91 -228 -195 -17
-49 -17 -2322 -1 -2372 11 -33 36 -70 76 -116 11 -13 45 -34 75 -48 l55 -25
1159 2 1159 3 47 24 c55 28 88 60 116 113 10 21 37 63 58 94 l39 56 3 1145 c1
750 -1 1158 -8 1182 -17 66 -65 119 -133 152 l-62 29 -1110 0 c-972 -1 -1115
-3 -1150 -16z m-107 -61 c-16 -35 -46 -74 -63 -82 -11 -5 -14 -10 -7 -10 18
-1 15 -28 -5 -40 -10 -6 -12 -11 -5 -11 18 0 15 -20 -5 -37 -10 -8 -13 -12 -6
-9 17 9 27 -12 13 -28 -8 -11 -8 -15 2 -18 10 -4 10 -8 -1 -21 -7 -10 -9 -17
-3 -17 13 0 13 -71 0 -87 -6 -8 -6 -13 -1 -13 5 0 10 -38 11 -85 1 -60 -2 -85
-11 -85 -9 0 -9 -2 -1 -8 18 -11 13 -151 -6 -162 -13 -8 -12 -10 3 -10 20 0
24 -40 5 -41 -10 0 -10 -2 0 -6 15 -6 16 -43 1 -43 -6 0 -7 -5 -2 -12 15 -25
12 -68 -6 -68 -9 0 -23 -5 -31 -10 -11 -7 -6 -8 17 -4 30 6 32 5 31 -25 -1
-18 -8 -36 -17 -41 -14 -8 -14 -9 2 -10 9 0 17 -7 17 -15 0 -8 -8 -16 -17 -16
-15 -1 -15 -2 -2 -6 10 -2 16 -15 17 -33 0 -24 -4 -30 -21 -31 l-22 -2 22 -4
c18 -4 22 -11 21 -44 0 -25 -6 -43 -17 -49 -14 -8 -14 -9 2 -10 20 0 24 -40 5
-41 -10 0 -10 -2 0 -6 19 -7 15 -43 -5 -44 -17 -1 -17 -2 0 -6 19 -5 23 -33 5
-34 -10 0 -10 -2 0 -6 18 -7 15 -43 -5 -43 -15 0 -15 -1 -1 -12 17 -13 19 -62
5 -85 -5 -7 -4 -13 1 -13 11 0 10 -130 -1 -147 -5 -7 -4 -13 1 -13 14 0 13
-223 -1 -232 -9 -6 -9 -8 0 -8 8 0 12 -20 12 -60 -1 -49 -4 -60 -17 -61 -14
-1 -14 -2 -2 -5 24 -7 24 -183 1 -185 -14 -1 -14 -2 -1 -5 20 -6 26 -154 7
-154 -9 0 -9 -2 -1 -8 15 -9 13 -87 -3 -103 -6 -6 -9 -18 -6 -25 4 -10 10 -8
24 9 l19 22 21 -25 c53 -64 97 -102 109 -95 5 3 18 -3 29 -14 12 -12 23 -16
26 -10 4 5 16 7 28 2 12 -4 43 -6 70 -4 31 1 47 -2 47 -10 0 -8 4 -8 13 -1 17
14 157 14 157 -1 0 -8 3 -8 12 1 7 7 23 12 36 12 20 0 23 -4 19 -23 l-6 -22
16 22 c17 25 73 33 73 11 0 -9 3 -9 12 0 15 15 55 16 64 1 4 -8 9 -8 17 0 14
14 67 14 67 0 0 -8 4 -8 13 -1 17 14 147 14 147 -1 0 -8 4 -7 12 1 16 16 68
15 68 -1 0 -7 -3 -17 -7 -23 -5 -5 1 1 12 13 34 38 97 25 68 -13 -5 -5 1 1 12
13 22 24 78 32 91 12 4 -8 9 -8 17 0 14 14 67 14 67 0 0 -8 4 -8 13 -1 17 14
147 14 147 -1 0 -8 4 -7 12 1 16 16 58 16 58 0 0 -9 3 -9 12 0 16 16 68 15 68
-1 0 -7 -3 -17 -7 -23 -5 -5 1 1 12 13 22 24 75 32 75 11 0 -9 3 -9 12 0 7 7
25 12 41 12 25 0 29 -3 24 -23 l-6 -22 17 21 c16 20 26 22 165 21 81 0 147 -3
147 -6 0 -4 -7 -18 -16 -31 -10 -16 -6 -14 13 7 27 30 31 32 101 32 46 -1 72
-5 72 -12 0 -8 4 -7 12 1 14 14 68 16 68 3 0 -6 12 -3 28 5 33 17 62 18 62 2
0 -6 10 -1 22 12 14 15 23 19 26 11 5 -16 -27 -51 -47 -51 -9 0 -28 -14 -42
-32 -22 -26 -34 -32 -67 -33 -23 0 -44 -4 -48 -8 -11 -11 -52 -8 -60 4 -4 8
-9 8 -17 0 -6 -6 -24 -11 -40 -11 -23 0 -28 3 -23 17 6 16 6 16 -12 0 -22 -20
-63 -22 -80 -5 -9 9 -12 9 -12 0 0 -7 -13 -12 -30 -12 -34 0 -36 6 -14 40 9
15 4 12 -13 -8 -28 -32 -65 -42 -79 -21 -4 8 -9 8 -17 0 -15 -15 -67 -14 -67
1 0 9 -3 9 -12 0 -16 -16 -68 -15 -68 1 0 7 3 17 8 23 4 5 -2 -1 -13 -13 -22
-24 -75 -32 -75 -11 0 9 -3 9 -12 0 -16 -16 -68 -16 -68 0 0 9 -3 9 -12 0 -16
-16 -65 -15 -71 1 -4 9 -7 9 -18 0 -7 -7 -22 -13 -32 -13 -15 0 -18 5 -14 23
l6 22 -19 -23 c-21 -26 -67 -27 -62 -2 3 11 -1 11 -16 -3 -25 -22 -72 -23 -72
0 0 15 -1 15 -18 0 -10 -10 -31 -17 -46 -17 -24 0 -26 3 -21 23 l7 22 -16 -22
c-14 -19 -25 -22 -91 -21 -48 0 -75 4 -75 11 0 7 -4 7 -12 -1 -19 -19 -68 -15
-68 6 -1 16 -2 16 -13 1 -18 -24 -147 -25 -147 -2 0 14 -2 14 -19 -1 -23 -21
-68 -18 -63 4 3 11 -1 11 -16 -3 -21 -19 -62 -23 -62 -5 0 9 -3 9 -12 0 -16
-16 -68 -16 -68 0 0 9 -3 9 -12 0 -15 -15 -58 -16 -58 -1 0 8 -4 8 -12 1 -7
-5 -48 -10 -91 -10 l-78 -1 21 37 20 37 -31 -37 c-23 -28 -39 -38 -60 -38 -16
0 -29 5 -29 12 0 9 -3 9 -12 0 -19 -19 -68 -15 -68 5 0 15 -1 15 -18 0 -22
-20 -66 -12 -57 11 4 12 3 13 -9 3 -16 -13 -56 -6 -56 10 0 5 -9 9 -21 9 -12
0 -23 8 -26 19 -3 11 -14 21 -25 24 -16 5 -18 9 -9 25 9 17 8 19 -9 15 -19 -5
-25 5 -21 31 1 5 -4 13 -11 17 -8 5 -13 40 -15 109 -2 96 -1 101 20 110 22 9
22 9 1 9 -18 1 -22 7 -22 41 -1 34 2 40 21 41 l22 2 -21 4 c-20 4 -22 10 -22
91 1 53 5 90 12 94 8 6 8 8 -1 8 -16 0 -15 290 1 290 8 0 8 2 0 8 -7 4 -11 39
-12 85 0 64 3 77 17 78 15 1 15 2 -1 6 -12 3 -16 16 -16 49 0 38 3 44 21 45
22 2 22 2 1 6 l-21 4 1 405 c1 348 3 406 16 414 13 8 13 10 -2 10 -14 0 -16
15 -16 118 1 64 5 123 11 130 6 8 6 12 -1 12 -12 0 -11 98 1 118 5 7 4 12 -2
12 -18 0 -12 38 7 49 9 6 11 11 5 11 -18 0 -16 16 4 36 9 9 17 25 18 34 2 20
50 65 98 93 32 17 72 23 65 10z m995 -620 c688 -453 956 -634 951 -646 -6 -14
-1120 -758 -1146 -765 -17 -4 -18 28 -18 767 0 514 3 771 10 771 6 0 97 -57
203 -127z"/>
<path d="M294 2684 c-18 -14 -18 -15 4 -4 12 6 22 13 22 15 0 8 -5 6 -26 -11z"/>
<path d="M284 2494 c-18 -14 -18 -14 6 -3 31 14 36 19 24 19 -6 0 -19 -7 -30
-16z"/>
<path d="M308 1953 c7 -3 16 -2 19 1 4 3 -2 6 -13 5 -11 0 -14 -3 -6 -6z"/>
<path d="M268 1943 c7 -3 16 -2 19 1 4 3 -2 6 -13 5 -11 0 -14 -3 -6 -6z"/>
<path d="M308 1843 c7 -3 16 -2 19 1 4 3 -2 6 -13 5 -11 0 -14 -3 -6 -6z"/>
<path d="M268 1833 c7 -3 16 -2 19 1 4 3 -2 6 -13 5 -11 0 -14 -3 -6 -6z"/>
<path d="M288 1393 c7 -3 16 -2 19 1 4 3 -2 6 -13 5 -11 0 -14 -3 -6 -6z"/>
<path d="M298 733 c6 -2 18 -2 25 0 6 3 1 5 -13 5 -14 0 -19 -2 -12 -5z"/>
<path d="M320 449 c0 -5 5 -7 10 -4 6 3 10 8 10 11 0 2 -4 4 -10 4 -5 0 -10
-5 -10 -11z"/>
<path d="M404 328 l-19 -23 23 19 c12 11 22 21 22 23 0 8 -8 2 -26 -19z"/>
<path d="M879 293 c-13 -16 -12 -17 4 -4 16 13 21 21 13 21 -2 0 -10 -8 -17
-17z"/>
<path d="M1268 293 c-19 -23 -31 -43 -24 -43 2 0 14 14 26 30 23 33 22 40 -2
13z"/>
<path d="M1923 298 c-15 -20 -25 -38 -20 -38 3 0 12 11 21 25 17 26 16 35 -1
13z"/>
<path d="M535 289 c-4 -6 -5 -12 -2 -15 2 -3 7 2 10 11 7 17 1 20 -8 4z"/>
<path d="M780 285 c-7 -9 -10 -18 -7 -21 3 -3 10 4 17 15 13 25 8 27 -10 6z"/>
<path d="M2229 273 c-13 -16 -12 -17 4 -4 16 13 21 21 13 21 -2 0 -10 -8 -17
-17z"/>
<path d="M2309 273 c-13 -16 -12 -17 4 -4 16 13 21 21 13 21 -2 0 -10 -8 -17
-17z"/>
</g>
</svg>
